<mxfile host="Electron" agent="Mozilla/5.0 (Windows NT 10.0; Win64; x64) AppleWebKit/537.36 (KHTML, like Gecko) draw.io/24.7.5 Chrome/126.0.6478.183 Electron/31.3.0 Safari/537.36" version="24.7.5">
  <diagram name="Page-1" id="67wo7TqbMDKhbS4oXB45">
    <mxGraphModel dx="875" dy="524" grid="1" gridSize="10" guides="1" tooltips="1" connect="1" arrows="1" fold="1" page="1" pageScale="1" pageWidth="827" pageHeight="1169" math="0" shadow="0">
      <root>
        <mxCell id="0" />
        <mxCell id="1" parent="0" />
        <mxCell id="z7XoYTItBh_WXSL-8e0A-43" style="edgeStyle=orthogonalEdgeStyle;rounded=0;orthogonalLoop=1;jettySize=auto;html=1;exitX=1;exitY=0.5;exitDx=0;exitDy=0;entryX=0;entryY=0.5;entryDx=0;entryDy=0;" edge="1" parent="1" source="z7XoYTItBh_WXSL-8e0A-1" target="z7XoYTItBh_WXSL-8e0A-41">
          <mxGeometry relative="1" as="geometry" />
        </mxCell>
        <mxCell id="z7XoYTItBh_WXSL-8e0A-1" value="Actuator" style="rounded=1;whiteSpace=wrap;html=1;" vertex="1" parent="1">
          <mxGeometry x="350" y="250" width="96" height="50" as="geometry" />
        </mxCell>
        <mxCell id="z7XoYTItBh_WXSL-8e0A-10" style="edgeStyle=orthogonalEdgeStyle;rounded=0;orthogonalLoop=1;jettySize=auto;html=1;exitX=1;exitY=0.5;exitDx=0;exitDy=0;" edge="1" parent="1">
          <mxGeometry relative="1" as="geometry">
            <mxPoint x="710" y="275" as="targetPoint" />
            <mxPoint x="640" y="275" as="sourcePoint" />
          </mxGeometry>
        </mxCell>
        <mxCell id="z7XoYTItBh_WXSL-8e0A-3" value="Controlled Object" style="rounded=1;whiteSpace=wrap;html=1;" vertex="1" parent="1">
          <mxGeometry x="520" y="250" width="120" height="50" as="geometry" />
        </mxCell>
        <mxCell id="z7XoYTItBh_WXSL-8e0A-7" style="edgeStyle=orthogonalEdgeStyle;rounded=0;orthogonalLoop=1;jettySize=auto;html=1;exitX=1;exitY=0.5;exitDx=0;exitDy=0;entryX=0;entryY=0.5;entryDx=0;entryDy=0;" edge="1" parent="1" source="z7XoYTItBh_WXSL-8e0A-4" target="z7XoYTItBh_WXSL-8e0A-1">
          <mxGeometry relative="1" as="geometry" />
        </mxCell>
        <mxCell id="z7XoYTItBh_WXSL-8e0A-4" value="Controller" style="rounded=1;whiteSpace=wrap;html=1;" vertex="1" parent="1">
          <mxGeometry x="204" y="250" width="96" height="50" as="geometry" />
        </mxCell>
        <mxCell id="z7XoYTItBh_WXSL-8e0A-16" style="edgeStyle=orthogonalEdgeStyle;rounded=0;orthogonalLoop=1;jettySize=auto;html=1;exitX=0;exitY=0.5;exitDx=0;exitDy=0;entryX=0.5;entryY=1;entryDx=0;entryDy=0;" edge="1" parent="1" source="z7XoYTItBh_WXSL-8e0A-5">
          <mxGeometry relative="1" as="geometry">
            <mxPoint x="150" y="285" as="targetPoint" />
          </mxGeometry>
        </mxCell>
        <mxCell id="z7XoYTItBh_WXSL-8e0A-17" style="edgeStyle=orthogonalEdgeStyle;rounded=0;orthogonalLoop=1;jettySize=auto;html=1;exitX=1;exitY=0.5;exitDx=0;exitDy=0;" edge="1" parent="1" target="z7XoYTItBh_WXSL-8e0A-4">
          <mxGeometry relative="1" as="geometry">
            <mxPoint x="160" y="275" as="sourcePoint" />
          </mxGeometry>
        </mxCell>
        <mxCell id="z7XoYTItBh_WXSL-8e0A-18" style="edgeStyle=orthogonalEdgeStyle;rounded=0;orthogonalLoop=1;jettySize=auto;html=1;entryX=0;entryY=0.5;entryDx=0;entryDy=0;" edge="1" parent="1">
          <mxGeometry relative="1" as="geometry">
            <mxPoint x="140" y="275" as="targetPoint" />
            <mxPoint x="50" y="275" as="sourcePoint" />
          </mxGeometry>
        </mxCell>
        <mxCell id="z7XoYTItBh_WXSL-8e0A-19" value="" style="shape=sumEllipse;perimeter=ellipsePerimeter;whiteSpace=wrap;html=1;backgroundOutline=1;" vertex="1" parent="1">
          <mxGeometry x="140" y="265" width="20" height="20" as="geometry" />
        </mxCell>
        <mxCell id="z7XoYTItBh_WXSL-8e0A-20" value="y(t)" style="text;html=1;align=center;verticalAlign=middle;whiteSpace=wrap;rounded=0;" vertex="1" parent="1">
          <mxGeometry x="650" y="250" width="60" height="30" as="geometry" />
        </mxCell>
        <mxCell id="z7XoYTItBh_WXSL-8e0A-21" value="r(t)" style="text;html=1;align=center;verticalAlign=middle;whiteSpace=wrap;rounded=0;" vertex="1" parent="1">
          <mxGeometry x="50" y="250" width="60" height="30" as="geometry" />
        </mxCell>
        <mxCell id="z7XoYTItBh_WXSL-8e0A-22" value="u(t)" style="text;html=1;align=center;verticalAlign=middle;whiteSpace=wrap;rounded=0;" vertex="1" parent="1">
          <mxGeometry x="300" y="250" width="60" height="30" as="geometry" />
        </mxCell>
        <mxCell id="z7XoYTItBh_WXSL-8e0A-23" value="e(t)" style="text;html=1;align=center;verticalAlign=middle;whiteSpace=wrap;rounded=0;" vertex="1" parent="1">
          <mxGeometry x="150" y="250" width="60" height="30" as="geometry" />
        </mxCell>
        <mxCell id="z7XoYTItBh_WXSL-8e0A-26" value="Actual Controlled Object" style="swimlane;whiteSpace=wrap;html=1;startSize=23;" vertex="1" parent="1">
          <mxGeometry x="340" y="210" width="310" height="100" as="geometry" />
        </mxCell>
        <mxCell id="z7XoYTItBh_WXSL-8e0A-27" value="Actual Sensor" style="swimlane;whiteSpace=wrap;html=1;" vertex="1" parent="1">
          <mxGeometry x="500" y="320" width="190" height="110" as="geometry">
            <mxRectangle x="500" y="320" width="120" height="30" as="alternateBounds" />
          </mxGeometry>
        </mxCell>
        <mxCell id="z7XoYTItBh_WXSL-8e0A-5" value="Sensor" style="rounded=1;whiteSpace=wrap;html=1;" vertex="1" parent="z7XoYTItBh_WXSL-8e0A-27">
          <mxGeometry x="10" y="40" width="96" height="50" as="geometry" />
        </mxCell>
        <mxCell id="z7XoYTItBh_WXSL-8e0A-35" style="edgeStyle=orthogonalEdgeStyle;rounded=0;orthogonalLoop=1;jettySize=auto;html=1;exitX=0;exitY=0.5;exitDx=0;exitDy=0;entryX=1;entryY=0.5;entryDx=0;entryDy=0;" edge="1" parent="1" source="z7XoYTItBh_WXSL-8e0A-34" target="z7XoYTItBh_WXSL-8e0A-5">
          <mxGeometry relative="1" as="geometry" />
        </mxCell>
        <mxCell id="z7XoYTItBh_WXSL-8e0A-34" value="" style="shape=sumEllipse;perimeter=ellipsePerimeter;whiteSpace=wrap;html=1;backgroundOutline=1;" vertex="1" parent="1">
          <mxGeometry x="650" y="375" width="20" height="20" as="geometry" />
        </mxCell>
        <mxCell id="z7XoYTItBh_WXSL-8e0A-40" value="" style="endArrow=classic;html=1;rounded=0;" edge="1" parent="1">
          <mxGeometry width="50" height="50" relative="1" as="geometry">
            <mxPoint x="700" y="384.83" as="sourcePoint" />
            <mxPoint x="670" y="384.83" as="targetPoint" />
          </mxGeometry>
        </mxCell>
        <mxCell id="z7XoYTItBh_WXSL-8e0A-44" style="edgeStyle=orthogonalEdgeStyle;rounded=0;orthogonalLoop=1;jettySize=auto;html=1;exitX=1;exitY=0.5;exitDx=0;exitDy=0;entryX=0;entryY=0.5;entryDx=0;entryDy=0;" edge="1" parent="1" source="z7XoYTItBh_WXSL-8e0A-41" target="z7XoYTItBh_WXSL-8e0A-3">
          <mxGeometry relative="1" as="geometry" />
        </mxCell>
        <mxCell id="z7XoYTItBh_WXSL-8e0A-41" value="" style="shape=sumEllipse;perimeter=ellipsePerimeter;whiteSpace=wrap;html=1;backgroundOutline=1;" vertex="1" parent="1">
          <mxGeometry x="470" y="265" width="20" height="20" as="geometry" />
        </mxCell>
        <mxCell id="z7XoYTItBh_WXSL-8e0A-45" value="" style="endArrow=classic;html=1;rounded=0;" edge="1" parent="1">
          <mxGeometry width="50" height="50" relative="1" as="geometry">
            <mxPoint x="400" y="190" as="sourcePoint" />
            <mxPoint x="479.65999999999997" y="265" as="targetPoint" />
          </mxGeometry>
        </mxCell>
        <mxCell id="z7XoYTItBh_WXSL-8e0A-46" value="Actual Controller" style="swimlane;whiteSpace=wrap;html=1;" vertex="1" parent="1">
          <mxGeometry x="120" y="210" width="190" height="110" as="geometry" />
        </mxCell>
        <mxCell id="z7XoYTItBh_WXSL-8e0A-36" style="edgeStyle=orthogonalEdgeStyle;rounded=0;orthogonalLoop=1;jettySize=auto;html=1;exitX=1;exitY=0.5;exitDx=0;exitDy=0;entryX=0.5;entryY=0;entryDx=0;entryDy=0;" edge="1" parent="1" source="z7XoYTItBh_WXSL-8e0A-3" target="z7XoYTItBh_WXSL-8e0A-34">
          <mxGeometry relative="1" as="geometry">
            <mxPoint x="640" y="275" as="sourcePoint" />
          </mxGeometry>
        </mxCell>
      </root>
    </mxGraphModel>
  </diagram>
</mxfile>
